# Blender v2.91.0 OBJ File: 'RaytracingJs.blend'
# www.blender.org
mtllib 1.mtl
o Icosphere.001_Icosphere.002
v 2.622359 0.423664 -1.009980
v 3.001426 -0.323529 -0.975911
v 2.398763 -1.075451 -0.977366
v 3.558291 -0.465185 -0.459678
v 3.891771 -0.052350 -0.073392
v 3.826009 -0.351907 0.079897
v 2.469562 -1.812550 -0.640947
v 2.689670 -1.687049 -0.759028
v 3.100405 -1.016148 0.291646
v 1.776838 0.071969 0.066719
v 1.784687 0.099780 -0.199136
v 2.141333 -1.605584 -0.743264
v 3.197489 0.983229 -0.229160
v 3.623477 0.687889 -0.350179
v 2.888851 0.800556 -0.762193
v 3.664041 0.678220 0.134267
v 2.356296 -1.794859 -0.984289
v 2.056543 -0.809420 0.034867
v 1.831351 0.462603 0.112916
v 3.159169 -0.827200 0.458595
v 3.565971 -0.453512 0.673619
v 3.021358 -0.591796 0.967008
v 2.213425 -0.505368 0.471495
v 2.541059 -0.653779 0.543771
v 2.487480 -0.472086 0.978932
v 2.241504 0.337225 0.673813
v 2.139533 0.180619 0.639016
v 2.815042 -0.382317 1.724698
v 3.574950 -0.326284 1.540890
v 3.462073 -0.551611 1.726694
v 3.370584 -0.494208 1.904878
v 3.142570 -0.630503 1.853133
v 2.453791 -0.330865 1.221243
v 2.910497 0.124875 0.922938
v 3.760388 0.244102 0.389875
v 3.576966 0.423671 0.643783
v 2.588456 0.963685 -0.113024
v 2.175048 0.691890 0.121689
v 3.157451 0.903490 0.150877
v 2.661985 -1.201004 0.076409
v 2.618042 -1.649276 -0.941549
v 1.907523 0.530173 -0.179891
v 2.557802 0.840448 -0.612061
v 2.358965 0.452177 -0.808277
v 2.173107 -1.518562 -0.948561
v 3.670092 0.406278 -0.428609
v 3.453955 -0.222721 -0.772500
v 3.005627 0.309814 -0.930004
v 3.010068 -0.991552 -0.857131
v 2.070529 -0.449351 -0.799085
vt 0.030957 0.840049
vt 0.158286 0.788831
vt 0.166207 0.635590
vt 0.363260 0.214916
vt 0.316895 0.311841
vt 0.368772 0.312702
vt 0.598580 0.054009
vt 0.555725 0.055458
vt 0.524812 0.267354
vt 0.034411 0.293545
vt 0.028690 0.330182
vt 0.247359 0.504382
vt 0.056281 0.997330
vt 0.137406 1.000000
vt 0.027686 0.922843
vt 0.797599 0.462967
vt 0.715122 0.482625
vt 0.810990 0.530008
vt 0.311339 0.489925
vt 0.290702 0.543203
vt 0.162656 0.343551
vt 0.846691 0.296188
vt 0.867524 0.259645
vt 0.839108 0.226708
vt 0.899183 0.536455
vt 0.511079 0.305635
vt 0.449410 0.379194
vt 0.535892 0.386105
vt 0.155564 0.254460
vt 0.212790 0.240664
vt 0.192843 0.167779
vt 0.829373 0.134499
vt 0.850515 0.153666
vt 0.867524 0.000000
vt 0.501571 0.512152
vt 0.551652 0.519801
vt 0.567009 0.544355
vt 0.234002 0.040704
vt 0.302667 0.025100
vt 0.316895 0.000000
vt 0.176980 0.124789
vt 0.759878 0.715822
vt 0.798548 0.866941
vt 0.888885 0.871351
vt 0.271222 0.156393
vt 0.306260 0.240098
vt 0.863237 0.589402
vt 0.899183 0.798581
vt 0.826361 0.622992
vt 0.631983 0.531360
vt 0.598579 0.603254
vt 0.721249 0.543563
vt 0.644387 0.700931
vt 0.316895 0.278754
vt 0.279665 0.338946
vt 0.543517 0.027879
vt 0.778952 0.196032
vt 0.804729 0.261672
vt 0.668088 0.276293
vt 0.705727 0.337346
vt 0.239098 0.527492
vt 0.171854 0.967335
vt 0.255467 0.947782
vt 0.206486 0.855170
vt 0.255467 0.607013
vt 0.283508 0.626053
vt 0.283508 0.543203
vt 0.091399 0.868332
vt 0.615510 0.285638
vt 0.658110 0.356524
vt 0.440588 0.098914
vt 0.233819 0.712813
vt 0.320443 0.179212
vt 0.801203 0.403858
vt 0.866930 0.462967
vt 0.690190 0.194978
vt 0.330669 0.389787
vt 0.598580 0.517411
vt 0.075454 0.189161
vt 0.598579 0.183280
vt 0.000000 0.259769
vt 0.255467 0.589309
vt 0.062430 0.685474
vt 0.000000 0.824529
vt 0.187201 0.559638
vt 0.238525 0.543203
vt 0.579813 0.000000
vt 0.114226 0.441481
vn 0.0363 -0.0271 -0.9990
vn 0.8613 -0.3682 -0.3501
vn 0.5808 -0.7698 0.2645
vn -0.9807 -0.1895 -0.0488
vn 0.3960 0.7738 -0.4945
vn 0.5636 0.8255 -0.0307
vn 0.6407 -0.7509 -0.1602
vn -0.5593 -0.8166 0.1424
vn -0.5593 -0.6091 0.5623
vn -0.9901 0.1399 -0.0146
vn 0.9461 0.3156 -0.0729
vn 0.4474 -0.7591 0.4728
vn -0.4476 -0.8435 0.2971
vn -0.7157 0.3292 0.6160
vn 0.9092 -0.4132 0.0512
vn 0.8811 -0.0540 0.4698
vn -0.2852 0.1159 0.9514
vn -0.6481 -0.6489 0.3987
vn -0.0031 0.8453 0.5343
vn -0.6152 -0.7153 0.3314
vn -0.5665 -0.7438 0.3547
vn -0.2190 -0.9756 -0.0127
vn -0.1968 -0.9131 0.3570
vn -0.2046 -0.9084 0.3647
vn -0.1974 -0.9128 0.3576
vn -0.2045 -0.9082 0.3651
vn 0.9577 0.2705 0.0985
vn 0.4569 0.6820 0.5711
vn -0.1874 0.7896 0.5842
vn -0.1752 0.7207 0.6708
vn 0.0690 0.8431 0.5333
vn 0.0664 0.8404 0.5379
vn 0.0683 0.8424 0.5345
vn -0.7227 0.3365 0.6037
vn 0.0027 -0.7614 0.6483
vn -0.1037 -0.6403 0.7611
vn -0.0813 -0.6576 0.7490
vn 0.6733 -0.5960 0.4376
vn 0.3365 -0.8872 -0.3157
vn 0.3724 0.8032 0.4649
vn 0.4018 0.8868 0.2284
vn -0.4853 0.7079 0.5131
vn -0.6240 0.5827 -0.5206
vn -0.9435 0.2774 -0.1814
vn -0.9300 -0.3027 0.2083
vn -0.8052 -0.4909 -0.3327
vn 0.8477 -0.0012 -0.5305
vn 0.9311 0.2324 -0.2810
vn 0.5443 0.3075 -0.7805
vn 0.2940 0.3712 -0.8808
vn -0.2482 0.6486 -0.7196
vn -0.4566 0.5763 -0.6777
vn 0.5624 0.2394 -0.7914
vn 0.8071 -0.4290 -0.4055
vn 0.4332 -0.1523 -0.8883
vn 0.7525 -0.3748 -0.5415
vn 0.7614 -0.4204 -0.4935
vn 0.2234 0.0690 -0.9723
vn 0.8476 -0.2435 -0.4715
vn -0.9251 -0.0746 -0.3724
vn 0.8548 0.3916 0.3406
vn 0.8539 0.3980 0.3354
vn 0.8549 0.3907 0.3413
vn -0.6030 0.7823 -0.1562
vn -0.3424 0.7141 0.6106
vn 0.9658 -0.2578 0.0278
vn 0.3789 -0.8063 0.4543
vn 0.2118 -0.9747 -0.0713
vn 0.2102 -0.9751 -0.0703
vn 0.2123 -0.9746 -0.0716
vn 0.0658 0.8397 0.5390
vn -0.7902 0.1810 0.5855
vn -0.9232 -0.1821 0.3384
vn 0.2098 -0.9752 -0.0701
vn -0.0839 0.9566 -0.2792
vn 0.1886 0.7791 0.5979
vn -0.8481 0.0560 0.5269
vn -0.8250 -0.2796 0.4911
vn -0.8042 -0.2213 0.5517
vn -0.4534 -0.6347 0.6258
vn -0.4340 -0.6587 0.6146
vn -0.4448 -0.6191 0.6471
vn 0.6272 -0.7655 0.1437
vn 0.0079 0.9785 0.2061
vn -0.7723 0.2458 -0.5858
vn -0.7724 0.2464 -0.5854
vn -0.7723 0.2466 -0.5854
vn -0.5552 0.8304 0.0472
vn -0.4635 0.8839 -0.0628
vn 0.9512 -0.0533 0.3039
vn 0.8065 -0.5881 0.0602
vn 0.1914 0.0119 -0.9814
vn 0.4957 0.3843 -0.7788
vn -0.5858 0.1794 -0.7903
vn -0.4139 0.0420 -0.9094
vn -0.3189 0.1011 -0.9424
vn -0.1635 0.0191 -0.9864
vn 0.3973 0.0637 -0.9155
vn 0.2124 -0.1684 -0.9626
vn 0.5012 -0.8398 -0.2086
vn -0.9811 -0.0688 -0.1810
vn 0.8538 0.3984 0.3350
vn 0.0080 0.9707 -0.2402
vn -0.7719 0.2410 -0.5883
vn 0.9176 -0.0992 0.3849
vn 0.1612 -0.0000 -0.9869
usemtl Material.004
s 1
f 1/1/1 2/2/1 3/3/1
f 4/4/2 5/5/2 6/6/2
f 7/7/3 8/8/3 9/9/3
f 10/10/4 11/11/4 12/12/4
f 13/13/5 14/14/5 15/15/5
f 14/16/6 13/17/6 16/18/6
f 9/9/7 4/4/7 6/6/7
f 7/19/8 12/12/8 17/20/8
f 12/12/9 7/19/9 18/21/9
f 11/22/10 10/23/10 19/24/10
f 14/16/11 16/18/11 5/25/11
f 20/26/12 21/27/12 22/28/12
f 23/29/13 24/30/13 25/31/13
f 26/32/14 27/33/14 28/34/14
f 21/27/15 29/35/15 30/36/15
f 30/36/16 29/35/16 31/37/16
f 28/38/17 32/39/17 31/40/17
f 32/39/18 28/38/18 33/41/18
f 34/42/19 28/43/19 31/44/19
f 33/41/20 25/31/20 32/39/20
f 25/31/21 33/41/21 23/29/21
f 25/31/22 22/45/22 32/39/22
f 25/31/23 24/30/24 22/45/25
f 24/30/24 20/46/26 22/45/25
f 5/25/27 16/18/27 35/47/27
f 29/48/28 36/49/28 31/44/28
f 37/50/29 38/51/29 39/52/29
f 39/52/30 38/51/30 34/42/30
f 38/51/31 26/53/32 34/42/33
f 26/32/34 19/24/34 27/33/34
f 9/54/35 40/55/35 7/19/35
f 20/46/36 40/55/36 9/54/36
f 24/30/37 40/55/37 20/46/37
f 6/6/38 20/26/38 9/9/38
f 7/7/39 41/56/39 8/8/39
f 16/18/40 39/52/40 36/49/40
f 13/17/41 39/52/41 16/18/41
f 38/57/42 19/24/42 26/32/42
f 42/58/43 43/59/43 44/60/43
f 42/58/44 11/22/44 19/24/44
f 12/12/45 18/21/45 10/10/45
f 12/12/46 45/61/46 17/20/46
f 46/62/47 5/63/47 47/64/47
f 46/65/48 14/66/48 5/67/48
f 48/68/49 14/14/49 46/62/49
f 15/15/50 48/68/50 1/1/50
f 43/59/51 15/69/51 1/70/51
f 44/60/52 43/59/52 1/70/52
f 46/62/53 47/64/53 48/68/53
f 8/8/54 41/56/54 49/71/54
f 49/72/55 2/2/55 47/64/55
f 4/4/56 49/71/56 47/73/56
f 49/71/57 4/4/57 8/8/57
f 2/2/58 1/1/58 48/68/58
f 47/73/59 5/5/59 4/4/59
f 50/74/60 12/75/60 11/22/60
f 36/49/61 35/47/62 16/18/63
f 38/57/64 37/76/64 43/59/64
f 39/52/65 34/42/65 31/44/65
f 35/77/66 29/35/66 21/27/66
f 31/37/67 32/78/67 30/36/67
f 22/28/68 30/36/69 32/78/70
f 26/53/32 28/43/71 34/42/33
f 28/38/72 27/79/72 33/41/72
f 23/29/73 33/41/73 27/79/73
f 30/36/69 22/28/68 21/27/74
f 15/69/75 37/76/75 13/80/75
f 39/52/76 31/44/76 36/49/76
f 27/79/77 19/81/77 10/10/77
f 18/21/78 23/29/78 10/10/78
f 27/79/79 10/10/79 23/29/79
f 40/55/80 24/30/80 18/21/80
f 23/29/81 18/21/81 24/30/81
f 18/21/82 7/19/82 40/55/82
f 21/27/83 20/26/83 6/6/83
f 37/50/84 39/52/84 13/17/84
f 44/60/85 11/22/86 42/58/87
f 19/24/88 38/57/88 42/58/88
f 38/57/89 43/59/89 42/58/89
f 35/77/90 6/6/90 5/5/90
f 9/9/91 8/8/91 4/4/91
f 41/82/92 3/3/92 49/72/92
f 48/68/93 15/15/93 14/14/93
f 1/1/94 50/83/94 44/84/94
f 1/1/95 3/3/95 50/83/95
f 45/85/96 50/83/96 3/3/96
f 3/3/97 17/86/97 45/85/97
f 2/2/98 48/68/98 47/64/98
f 3/3/99 2/2/99 49/72/99
f 7/7/100 17/87/100 41/56/100
f 50/88/101 45/61/101 12/12/101
f 36/49/61 29/48/102 35/47/62
f 15/69/103 43/59/103 37/76/103
f 44/60/85 50/74/104 11/22/86
f 35/77/105 21/27/105 6/6/105
f 41/82/106 17/86/106 3/3/106
