# Blender v2.92.0 OBJ File: ''
# www.blender.org
mtllib 1.mtl
o Icosphere.001_Icosphere.002
v 2.356296 -1.794859 -0.984289
v 3.565971 -0.453512 0.673619
v 3.142570 -0.630503 1.853133
v 2.622359 0.423664 -1.009980
v 1.831351 0.462603 0.112916
v 3.462073 -0.551611 1.726694
v 3.370584 -0.494208 1.904878
v 3.001426 -0.323529 -0.975911
v 2.618042 -1.649276 -0.941549
v 3.558291 -0.465185 -0.459678
v 3.760388 0.244102 0.389875
v 2.469562 -1.812550 -0.640947
v 1.784687 0.099780 -0.199136
v 2.588456 0.963685 -0.113024
v 3.623477 0.687889 -0.350179
v 3.157451 0.903490 0.150877
v 3.159169 -0.827200 0.458595
v 2.213425 -0.505368 0.471495
v 2.241504 0.337225 0.673813
v 3.005627 0.309814 -0.930004
v 2.173107 -1.518562 -0.948561
v 2.557802 0.840448 -0.612061
v 2.888851 0.800556 -0.762193
v 3.100405 -1.016148 0.291646
v 3.021358 -0.591796 0.967008
v 2.487480 -0.472086 0.978932
v 3.574950 -0.326284 1.540890
v 2.815042 -0.382317 1.724698
v 2.910497 0.124875 0.922938
v 2.453791 -0.330865 1.221243
v 2.139533 0.180619 0.639016
v 2.541059 -0.653779 0.543771
v 3.664041 0.678220 0.134267
v 3.576966 0.423671 0.643783
v 2.175048 0.691890 0.121689
v 1.776838 0.071969 0.066719
v 2.661985 -1.201004 0.076409
v 3.826009 -0.351907 0.079897
v 3.197489 0.983229 -0.229160
v 1.907523 0.530173 -0.179891
v 2.056543 -0.809420 0.034867
v 2.141333 -1.605584 -0.743264
v 2.689670 -1.687049 -0.759028
v 3.891771 -0.052350 -0.073392
v 3.670092 0.406278 -0.428609
v 2.358965 0.452177 -0.808277
v 2.070529 -0.449351 -0.799085
v 2.398763 -1.075451 -0.977366
v 3.453955 -0.222721 -0.772500
v 3.010068 -0.991552 -0.857131
vt 0.129769 0.075104
vt 0.087038 0.006705
vt 0.063361 0.096718
vt 0.726752 0.160370
vt 0.639104 0.223727
vt 0.691165 0.251818
vt 0.893286 0.201209
vt 0.860109 0.184574
vt 0.811921 0.254256
vt 0.183557 0.245455
vt 0.193958 0.199272
vt 0.034717 0.194382
vt 0.452828 0.201408
vt 0.519636 0.182986
vt 0.421203 0.129157
vt 0.524580 0.242104
vt 0.931818 0.196826
vt 0.906251 0.152543
vt 0.966512 0.258803
vt 0.237583 0.256702
vt 0.800297 0.333668
vt 0.719298 0.333542
vt 0.756373 0.406864
vt 0.982803 0.322263
vt 0.931864 0.333362
vt 0.946955 0.399540
vt 0.268007 0.345239
vt 0.213445 0.324184
vt 0.227273 0.393652
vt 0.661658 0.328479
vt 0.535527 0.359803
vt 0.548039 0.400438
vt 0.499519 0.390250
vt 0.356050 0.401191
vt 0.386075 0.433517
vt 0.410801 0.391241
vt 0.340909 0.433017
vt 0.373914 0.321772
vt 0.183245 0.401451
vt 0.139763 0.399540
vt 0.181818 0.472382
vt 0.105986 0.321628
vt 0.871276 0.402840
vt 0.909090 0.472382
vt 0.813131 0.330428
vt 0.583737 0.280886
vt 0.501964 0.286511
vt 0.367175 0.216417
vt 0.297205 0.256971
vt 0.454062 0.244349
vt 0.285172 0.345327
vt 0.890274 0.273265
vt 0.863636 0.152424
vt 0.257727 0.210899
vt 0.370066 0.128922
vt 0.273235 0.116808
vt 0.084294 0.255299
vt 0.047390 0.153818
vt 0.016335 0.152543
vt 0.573769 0.149303
vt 0.660273 0.100762
vt 0.460453 0.059957
vt 0.538137 0.125937
vt 0.412964 0.072022
vt 0.337927 0.133116
vt 0.296630 0.078731
vt 0.622363 0.053803
vt 0.814726 0.117419
vt 0.805291 0.043059
vt 0.765168 0.090731
vt 0.454545 0.000000
vt 0.194504 0.120928
vt 0.523016 0.433517
vt 0.568181 0.433017
vt 0.681818 0.393652
vt 0.863636 0.078731
vt 0.131492 0.128183
vt 0.656146 0.034265
vn 0.0363 -0.0271 -0.9990
vn 0.8613 -0.3682 -0.3501
vn 0.5808 -0.7698 0.2645
vn -0.9807 -0.1895 -0.0488
vn 0.3960 0.7738 -0.4945
vn 0.5636 0.8255 -0.0307
vn 0.6407 -0.7509 -0.1602
vn -0.5593 -0.8166 0.1424
vn -0.5593 -0.6091 0.5623
vn -0.9901 0.1399 -0.0146
vn 0.9461 0.3156 -0.0729
vn 0.4474 -0.7591 0.4728
vn -0.4476 -0.8435 0.2971
vn -0.7157 0.3291 0.6160
vn 0.9092 -0.4132 0.0512
vn 0.8811 -0.0540 0.4698
vn -0.2852 0.1159 0.9514
vn -0.6480 -0.6489 0.3987
vn -0.0031 0.8453 0.5343
vn -0.6152 -0.7153 0.3314
vn -0.5665 -0.7438 0.3547
vn -0.2190 -0.9756 -0.0127
vn -0.1968 -0.9131 0.3570
vn -0.2045 -0.9082 0.3651
vn 0.9577 0.2705 0.0985
vn 0.4569 0.6820 0.5711
vn -0.1874 0.7896 0.5842
vn -0.1752 0.7207 0.6708
vn 0.0690 0.8431 0.5333
vn -0.7227 0.3365 0.6037
vn 0.0027 -0.7614 0.6483
vn -0.1037 -0.6403 0.7611
vn -0.0813 -0.6576 0.7490
vn 0.6733 -0.5960 0.4376
vn 0.3365 -0.8872 -0.3157
vn 0.3724 0.8032 0.4649
vn 0.4018 0.8868 0.2284
vn -0.4854 0.7079 0.5131
vn -0.6240 0.5827 -0.5206
vn -0.9435 0.2774 -0.1814
vn -0.9300 -0.3027 0.2083
vn -0.8052 -0.4909 -0.3327
vn 0.8477 -0.0012 -0.5305
vn 0.9311 0.2324 -0.2810
vn 0.5443 0.3075 -0.7805
vn 0.2940 0.3712 -0.8808
vn -0.2482 0.6486 -0.7196
vn -0.4566 0.5763 -0.6777
vn 0.5624 0.2394 -0.7914
vn 0.8071 -0.4290 -0.4055
vn 0.4332 -0.1523 -0.8883
vn 0.7525 -0.3748 -0.5415
vn 0.7614 -0.4204 -0.4935
vn 0.2234 0.0690 -0.9723
vn 0.8476 -0.2435 -0.4715
vn -0.9251 -0.0746 -0.3724
vn 0.8549 0.3907 0.3413
vn -0.6030 0.7823 -0.1562
vn -0.3424 0.7141 0.6106
vn 0.9658 -0.2578 0.0278
vn 0.3789 -0.8063 0.4543
vn 0.2123 -0.9746 -0.0716
vn 0.0658 0.8397 0.5390
vn -0.7902 0.1810 0.5855
vn -0.9232 -0.1821 0.3384
vn 0.2098 -0.9752 -0.0701
vn -0.0839 0.9566 -0.2792
vn 0.1886 0.7791 0.5979
vn -0.8481 0.0560 0.5269
vn -0.8250 -0.2796 0.4911
vn -0.8042 -0.2213 0.5517
vn -0.4534 -0.6347 0.6258
vn -0.4340 -0.6587 0.6146
vn -0.4448 -0.6191 0.6471
vn 0.6272 -0.7655 0.1437
vn 0.0079 0.9785 0.2061
vn -0.7723 0.2466 -0.5854
vn -0.5552 0.8304 0.0472
vn -0.4635 0.8839 -0.0628
vn 0.9512 -0.0533 0.3039
vn 0.8065 -0.5881 0.0602
vn 0.1914 0.0119 -0.9814
vn 0.4957 0.3843 -0.7788
vn -0.5858 0.1794 -0.7903
vn -0.4139 0.0420 -0.9094
vn -0.3189 0.1011 -0.9424
vn -0.1635 0.0191 -0.9864
vn 0.3973 0.0637 -0.9155
vn 0.2124 -0.1684 -0.9626
vn 0.5012 -0.8398 -0.2086
vn -0.9811 -0.0688 -0.1810
vn 0.8538 0.3984 0.3350
vn 0.0080 0.9707 -0.2402
vn -0.7719 0.2410 -0.5883
vn 0.9176 -0.0992 0.3849
vn 0.1612 -0.0000 -0.9869
usemtl None
s off
f 4/1/1 8/2/1 48/3/1
f 10/4/2 44/5/2 38/6/2
f 12/7/3 43/8/3 24/9/3
f 36/10/4 13/11/4 42/12/4
f 39/13/5 15/14/5 23/15/5
f 15/14/6 39/13/6 33/16/6
f 24/9/7 10/4/7 38/6/7
f 12/7/8 42/17/8 1/18/8
f 42/17/9 12/7/9 41/19/9
f 13/11/10 36/10/10 5/20/10
f 15/14/11 33/16/11 44/5/11
f 17/21/12 2/22/12 25/23/12
f 18/24/13 32/25/13 26/26/13
f 19/27/14 31/28/14 28/29/14
f 2/30/15 27/31/15 6/32/15
f 6/32/16 27/31/16 7/33/16
f 28/34/17 3/35/17 7/36/17
f 3/35/18 28/34/18 30/37/18
f 29/38/19 28/34/19 7/36/19
f 30/39/20 26/40/20 3/41/20
f 26/40/21 30/39/21 18/42/21
f 26/26/22 25/43/22 3/44/22
f 26/26/23 32/25/23 25/43/23
f 32/25/24 17/45/24 25/43/24
f 44/5/25 33/16/25 11/46/25
f 27/31/26 34/47/26 7/33/26
f 14/48/27 35/49/27 16/50/27
f 16/50/28 35/49/28 29/38/28
f 35/49/29 19/51/29 29/38/29
f 19/51/30 5/20/30 31/28/30
f 24/9/31 37/52/31 12/7/31
f 17/45/32 37/52/32 24/9/32
f 32/25/33 37/52/33 17/45/33
f 38/6/34 17/45/34 24/9/34
f 12/7/35 9/53/35 43/8/35
f 33/16/36 16/50/36 34/47/36
f 39/13/37 16/50/37 33/16/37
f 35/49/38 5/20/38 19/51/38
f 40/54/39 22/55/39 46/56/39
f 40/54/40 13/11/40 5/20/40
f 42/12/41 41/57/41 36/10/41
f 42/12/42 21/58/42 1/59/42
f 45/60/43 44/5/43 49/61/43
f 45/60/44 15/14/44 44/5/44
f 20/62/45 15/14/45 45/63/45
f 23/15/46 20/62/46 4/64/46
f 22/55/47 23/15/47 4/64/47
f 46/56/48 22/65/48 4/66/48
f 45/60/49 49/61/49 20/67/49
f 43/8/50 9/53/50 50/68/50
f 50/68/51 8/69/51 49/70/51
f 10/4/52 50/68/52 49/70/52
f 50/68/53 10/4/53 43/8/53
f 8/71/54 4/64/54 20/62/54
f 49/61/55 44/5/55 10/4/55
f 47/72/56 42/12/56 13/11/56
f 34/47/57 11/46/57 33/16/57
f 35/49/58 14/48/58 22/55/58
f 16/50/59 29/38/59 7/36/59
f 11/46/60 27/31/60 2/30/60
f 7/33/61 3/73/61 6/32/61
f 25/74/62 6/32/62 3/73/62
f 19/51/63 28/34/63 29/38/63
f 28/29/64 31/28/64 30/39/64
f 18/42/65 30/39/65 31/28/65
f 6/75/66 25/23/66 2/22/66
f 23/15/67 14/48/67 39/13/67
f 16/50/68 7/33/68 34/47/68
f 31/28/69 5/20/69 36/10/69
f 41/57/70 18/42/70 36/10/70
f 31/28/71 36/10/71 18/42/71
f 37/52/72 32/25/72 41/19/72
f 18/24/73 41/19/73 32/25/73
f 41/19/74 12/7/74 37/52/74
f 2/22/75 17/45/75 38/6/75
f 14/48/76 16/50/76 39/13/76
f 46/56/77 13/11/77 40/54/77
f 5/20/78 35/49/78 40/54/78
f 35/49/79 22/55/79 40/54/79
f 11/46/80 38/6/80 44/5/80
f 24/9/81 43/8/81 10/4/81
f 9/53/82 48/76/82 50/68/82
f 20/62/83 23/15/83 15/14/83
f 4/66/84 47/72/84 46/56/84
f 4/1/85 48/3/85 47/77/85
f 21/58/86 47/77/86 48/3/86
f 48/3/87 1/59/87 21/58/87
f 8/78/88 20/67/88 49/61/88
f 48/76/89 8/69/89 50/68/89
f 12/7/90 1/18/90 9/53/90
f 47/72/91 21/58/91 42/12/91
f 34/47/92 27/31/92 11/46/92
f 23/15/93 22/55/93 14/48/93
f 46/56/94 47/72/94 13/11/94
f 11/46/95 2/22/95 38/6/95
f 9/53/96 1/18/96 48/76/96
