# Blender v2.92.0 OBJ File: ''
# www.blender.org
mtllib 2.mtl
o Icosphere
v 0.651242 -0.537443 -0.316517
v -0.218130 -0.408906 -1.010931
v 0.930179 -0.361752 -0.028558
v -1.071782 0.433515 0.117031
v -0.680098 0.186686 0.613546
v -0.541741 -0.323794 0.821429
v -0.465268 0.338909 0.727297
v 0.014715 -1.014738 -0.377925
v 0.658097 0.528169 -0.498112
v -0.539251 -0.355763 -0.873030
v -1.116212 0.090487 -0.205229
v -0.789884 -0.540431 0.281777
v -0.292145 0.980373 -0.331903
v 0.732297 0.713245 -0.298156
v 0.394333 -0.672056 0.603437
v 0.176559 -0.687532 0.637301
v 0.124934 0.094769 0.970058
v 0.267744 0.677745 0.400622
v -0.375237 -0.849310 -0.623603
v -0.098725 0.483394 -0.993192
v -0.608874 0.108834 -0.866061
v -0.006212 0.795297 -0.767377
v -0.826912 0.604461 0.240749
v 0.841088 -0.372469 0.281378
v -0.216512 0.587616 0.355038
v 0.605852 0.086219 0.640359
v -0.060956 0.331238 0.915303
v 0.390652 0.426547 0.698820
v -0.377458 -0.070973 0.985562
v -0.125746 -0.374519 0.973919
v -0.451283 -0.572486 0.568950
v 0.370151 -0.254625 0.827439
v 0.790818 0.603283 0.169346
v 0.643232 0.817096 0.100388
v -0.437839 0.876758 -0.021633
v -1.127540 0.021139 0.037582
v -0.433462 -0.981436 -0.080027
v 0.149578 -0.919678 0.244873
v 0.256005 0.986084 0.033936
v 0.370003 0.968697 -0.225472
v -0.984016 0.542136 -0.174420
v -0.872771 -0.571749 -0.206250
v 0.414791 -0.721837 -0.639873
v 0.988930 -0.047815 0.076751
v 0.924526 -0.052252 -0.296311
v -0.346429 0.752431 -0.754707
v -0.401267 0.332887 -0.985866
v 0.539617 -0.231906 -0.785366
v -0.027837 -0.822176 -0.775619
v 0.195887 -0.474641 -0.967196
vt 0.818181 0.000000
vt 0.815028 0.077757
vt 0.852402 0.059274
vt 0.144548 0.091725
vt 0.064812 0.063113
vt 0.095795 0.104401
vt 0.223864 0.095272
vt 0.272670 0.080379
vt 0.250000 0.039365
vt 0.461192 0.205851
vt 0.523198 0.191868
vt 0.420814 0.128516
vt 0.504231 0.252545
vt 0.924249 0.223450
vt 0.862090 0.185231
vt 0.840041 0.284508
vt 0.192733 0.199102
vt 0.180940 0.244531
vt 0.236100 0.256314
vt 0.367629 0.194744
vt 0.342863 0.236791
vt 0.445979 0.239583
vt 0.550589 0.265432
vt 0.639367 0.252329
vt 0.766969 0.337347
vt 0.795454 0.357567
vt 0.978638 0.289103
vt 0.945825 0.330620
vt 0.959302 0.384663
vt 0.277485 0.280518
vt 0.214299 0.334657
vt 0.235399 0.380750
vt 0.510320 0.411527
vt 0.548739 0.443497
vt 0.529857 0.358556
vt 0.589910 0.359595
vt 0.459278 0.344580
vt 0.312780 0.378262
vt 0.372912 0.408148
vt 0.361095 0.311709
vt 0.174440 0.410687
vt 0.204545 0.433017
vt 0.092048 0.283400
vt 0.135835 0.374992
vt 0.906465 0.405978
vt 0.931818 0.433017
vt 0.863636 0.393652
vt 0.848622 0.352838
vt 0.723607 0.388256
vt 0.749999 0.433017
vt 0.713943 0.449296
vt 0.679879 0.371456
vt 0.698960 0.284457
vt 0.738078 0.159333
vt 0.690968 0.227541
vt 0.328117 0.122501
vt 0.257734 0.212598
vt 0.099639 0.209964
vt 0.031029 0.208935
vt 0.793117 0.139196
vt 0.639183 0.188799
vt 0.663684 0.097139
vt 0.382234 0.117795
vt 0.426516 0.064269
vt 0.310031 0.064613
vt 0.034112 0.143597
vt 0.632449 0.012091
vt 0.543758 0.128876
vt 0.854739 0.126081
vt 0.894927 0.132930
vt 0.772727 0.078731
vt 0.704545 0.114815
vt 0.449975 0.344691
vt 0.181818 0.472382
vt 0.909090 0.472382
vt 0.659090 0.039365
vn 0.1059 0.0056 -0.9944
vn -0.4006 -0.0463 -0.9151
vn -0.4347 -0.0770 -0.8973
vn 0.4168 0.7410 -0.5265
vn 0.5620 0.8223 -0.0887
vn 0.0235 -0.9890 0.1459
vn -0.9908 0.1354 -0.0075
vn -0.1698 0.9559 0.2395
vn 0.8175 0.5749 0.0329
vn 0.9535 0.2972 -0.0495
vn 0.1382 -0.8566 0.4972
vn -0.4993 -0.7000 0.5106
vn -0.6293 0.3825 0.6765
vn 0.3111 0.4397 0.8426
vn 0.6964 0.3310 0.6368
vn 0.1261 0.7837 0.6082
vn -0.1938 0.8706 0.4522
vn -0.0738 0.8513 0.5195
vn -0.3726 0.4363 0.8191
vn -0.8966 -0.0646 0.4382
vn -0.3601 -0.3320 0.8718
vn -0.3118 -0.7304 0.6077
vn 0.1619 -0.6459 0.7460
vn 0.3496 -0.4272 0.8338
vn 0.5651 0.0608 0.8228
vn 0.6846 -0.3135 0.6581
vn 0.7340 -0.1432 0.6639
vn 0.8247 -0.0194 0.5652
vn 0.8330 0.1790 0.5236
vn 0.5491 0.5747 0.6068
vn -0.0992 0.7603 0.6419
vn -0.6178 0.3914 0.6820
vn -0.7522 -0.1762 0.6350
vn -0.2008 -0.8313 0.5183
vn -0.2084 -0.8354 0.5085
vn 0.6547 -0.7524 0.0727
vn 0.9302 -0.2607 0.2584
vn 0.3823 0.9179 0.1065
vn 0.0726 0.9342 -0.3493
vn -0.1279 0.8798 -0.4579
vn -0.5364 0.8405 0.0768
vn -0.5573 0.7586 -0.3374
vn -0.6872 0.3866 -0.6150
vn -0.7685 0.2647 -0.5826
vn -0.9414 0.2876 -0.1763
vn -0.8756 -0.4493 0.1775
vn -0.6976 -0.6977 0.1632
vn 0.6101 -0.7923 0.0057
vn 0.9777 -0.1269 -0.1673
vn 0.9562 0.2397 -0.1679
vn 0.7815 -0.4210 -0.4604
vn -0.1055 0.6035 -0.7904
vn -0.2647 0.4917 -0.8296
vn -0.4087 -0.5162 -0.7527
vn -0.7040 -0.4925 -0.5117
vn 0.5234 0.2286 -0.8208
vn -0.2912 -0.5711 -0.7675
vn -0.1149 -0.8989 -0.4229
vn 0.0143 -0.4898 -0.8717
vn 0.6233 -0.3643 -0.6920
vn 0.8410 -0.3394 -0.4214
vn -0.0365 0.0247 -0.9990
vn -0.1682 0.7317 0.6605
vn -0.8118 -0.2976 -0.5025
vn -0.9293 -0.3414 -0.1409
vn -0.2381 -0.9376 -0.2534
vn -0.2042 0.8675 0.4536
vn 0.5551 0.2129 0.8041
vn -0.0354 0.1989 0.9794
vn -0.6116 0.3238 0.7218
vn -0.7523 0.0631 0.6558
vn 0.0341 -0.0100 0.9994
vn -0.2079 -0.8024 0.5594
vn 0.3151 -0.1606 0.9354
vn 0.1792 0.7876 0.5896
vn 0.5771 -0.8156 0.0418
vn -0.7880 -0.0121 0.6156
vn -0.4642 -0.7551 0.4630
vn 0.2203 0.7500 0.6236
vn 0.0265 0.9981 -0.0553
vn -0.6060 0.7877 0.1111
vn -0.5291 0.8478 0.0347
vn -0.6219 -0.7430 -0.2472
vn 0.5889 -0.8082 -0.0042
vn 0.8377 0.2092 -0.5045
vn 0.4935 0.5394 -0.6823
vn 0.4803 0.4164 -0.7719
vn -0.7406 0.3959 -0.5429
vn -0.7870 -0.1088 -0.6072
vn 0.7570 0.1244 -0.6415
vn 0.4085 0.1010 -0.9071
vn 0.3247 -0.8372 -0.4401
vn 0.3553 -0.6162 -0.7029
vn 0.7672 -0.4116 -0.4920
vn -0.1987 0.7470 0.6345
vn 0.4543 -0.8852 0.1000
usemtl None
s off
f 20/1/1 50/2/1 2/3/1
f 21/4/2 2/5/2 10/6/2
f 21/7/3 47/8/3 2/9/3
f 40/10/4 14/11/4 22/12/4
f 34/13/5 14/11/5 40/10/5
f 37/14/6 8/15/6 38/16/6
f 11/17/7 36/18/7 4/19/7
f 13/20/8 35/21/8 39/22/8
f 33/23/9 14/11/9 34/13/9
f 14/11/10 33/23/10 44/24/10
f 38/16/11 15/25/11 16/26/11
f 12/27/12 31/28/12 6/29/12
f 23/30/13 5/31/13 7/32/13
f 27/33/14 17/34/14 28/35/14
f 28/35/15 26/36/15 33/23/15
f 28/35/16 18/37/16 27/33/16
f 7/38/17 27/39/17 25/40/17
f 23/30/18 7/38/18 25/40/18
f 29/41/19 27/42/19 7/32/19
f 12/43/20 6/44/20 5/31/20
f 30/45/21 29/46/21 6/29/21
f 31/28/22 30/45/22 6/29/22
f 15/47/23 30/45/23 16/48/23
f 15/25/24 32/49/24 30/50/24
f 17/51/25 32/49/25 26/52/25
f 32/49/26 15/25/26 24/53/26
f 24/53/27 26/52/27 32/49/27
f 44/24/28 26/52/28 24/53/28
f 44/24/29 33/23/29 26/36/29
f 33/23/30 34/13/30 28/35/30
f 35/21/31 23/30/31 25/40/31
f 23/30/32 4/19/32 5/31/32
f 36/18/33 12/43/33 5/31/33
f 37/14/34 38/16/34 31/28/34
f 31/28/35 38/16/35 16/48/35
f 1/54/36 15/25/36 38/16/36
f 44/24/37 24/53/37 3/55/37
f 40/10/38 39/22/38 34/13/38
f 22/12/39 13/20/39 40/10/39
f 46/56/40 13/20/40 22/12/40
f 41/57/41 23/30/41 35/21/41
f 41/57/42 13/20/42 46/56/42
f 21/7/43 41/57/43 46/56/43
f 11/17/44 41/57/44 21/7/44
f 41/57/45 11/17/45 4/19/45
f 42/58/46 12/43/46 36/18/46
f 12/43/47 42/58/47 37/59/47
f 38/16/48 43/60/48 1/54/48
f 45/61/49 44/24/49 3/55/49
f 44/24/50 45/61/50 14/11/50
f 45/61/51 1/54/51 48/62/51
f 46/63/52 22/12/52 20/64/52
f 47/8/53 46/56/53 20/65/53
f 19/66/54 10/6/54 2/5/54
f 10/6/55 19/66/55 42/58/55
f 20/67/56 9/68/56 48/62/56
f 49/69/57 19/70/57 2/3/57
f 19/70/58 49/69/58 8/15/58
f 50/2/59 49/69/59 2/3/59
f 43/60/60 50/2/60 48/71/60
f 1/54/61 43/72/61 48/62/61
f 20/65/62 2/9/62 47/8/62
f 25/40/63 39/22/63 35/21/63
f 11/17/64 10/6/64 42/58/64
f 36/18/65 11/17/65 42/58/65
f 19/70/66 8/15/66 37/14/66
f 25/40/67 27/39/67 18/73/67
f 26/36/68 28/35/68 17/34/68
f 17/74/69 27/42/69 29/41/69
f 7/32/70 5/31/70 29/41/70
f 6/44/71 29/41/71 5/31/71
f 17/75/72 29/46/72 30/45/72
f 16/48/73 30/45/73 31/28/73
f 17/51/74 30/50/74 32/49/74
f 18/73/75 28/35/75 34/13/75
f 1/54/76 24/53/76 15/25/76
f 5/31/77 4/19/77 36/18/77
f 37/14/78 31/28/78 12/27/78
f 18/73/79 34/13/79 39/22/79
f 39/22/80 40/10/80 13/20/80
f 4/19/81 23/30/81 41/57/81
f 35/21/82 13/20/82 41/57/82
f 37/59/83 42/58/83 19/66/83
f 43/60/84 38/16/84 8/15/84
f 9/68/85 14/11/85 45/61/85
f 22/12/86 14/11/86 9/68/86
f 20/64/87 22/12/87 9/68/87
f 46/56/88 47/8/88 21/7/88
f 11/17/89 21/4/89 10/6/89
f 45/61/90 48/62/90 9/68/90
f 50/76/91 20/67/91 48/62/91
f 43/60/92 8/15/92 49/69/92
f 43/60/93 49/69/93 50/2/93
f 45/61/94 3/55/94 1/54/94
f 25/40/95 18/73/95 39/22/95
f 1/54/96 3/55/96 24/53/96
