# Blender v2.92.0 OBJ File: ''
# www.blender.org
mtllib 3.mtl
o Icosphere.003_Icosphere.004
v -1.128352 2.505844 -0.877191
v 0.004420 2.034493 0.934025
v 0.140409 3.897907 1.699852
v 0.261778 3.480631 -1.862932
v 0.968004 2.959129 -1.450517
v 0.457912 2.437216 -1.220077
v 1.209849 3.735930 -1.382064
v 1.624780 4.209169 0.046209
v -0.080610 5.551455 0.341983
v 0.541472 3.926289 1.843072
v -0.224061 4.609393 0.598240
v -1.626099 3.138350 -0.768810
v 1.752288 4.154629 0.691281
v 0.911471 2.175578 0.804235
v -1.298426 2.460843 0.811565
v 0.587948 4.575142 0.041783
v -1.204247 4.683997 0.522659
v -0.017845 5.158880 1.240825
v -1.291107 3.075456 1.272499
v 0.472102 4.280166 -1.531402
v -1.348876 3.198450 -1.223861
v -1.285984 4.429015 -1.135962
v 0.625268 1.925505 0.267063
v 1.181140 2.182028 -0.288282
v -0.902984 5.340034 0.477560
v -1.851337 4.183646 -0.280929
v -0.315539 5.506203 -0.606904
v -0.443389 5.298761 0.839288
v -0.374178 3.347463 1.686205
v 1.337129 3.428087 1.351438
v 0.334973 4.813316 1.510052
v 1.118889 4.488349 1.467242
v -1.399614 3.758981 0.797504
v -0.738178 2.592829 1.399543
v 0.989577 5.037174 0.249237
v 1.345504 4.882712 0.539992
v -1.660916 4.284406 0.456780
v -1.696609 3.220320 0.417154
v -0.281101 1.920204 0.372837
v 1.801937 2.811365 0.118910
v 1.850412 3.360279 0.608610
v 0.588032 5.362527 -0.122127
v -1.402632 4.976609 -0.357269
v 0.248272 1.989611 -0.506230
v 1.877219 3.482267 -0.594663
v 0.255183 5.060268 -0.873990
v -0.055243 5.047694 -1.178766
v -0.819809 5.008062 -1.063446
v -0.167373 3.870472 -1.868103
v 1.059811 4.894071 1.160554
vt 0.603565 0.373556
vt 0.601352 0.289818
vt 0.552253 0.355721
vt 0.212007 0.213132
vt 0.128060 0.174002
vt 0.138791 0.274222
vt 0.286401 0.210272
vt 0.316114 0.139942
vt 0.252652 0.135228
vt 0.405750 0.263704
vt 0.384899 0.174612
vt 0.328250 0.268728
vt 0.544727 0.145101
vt 0.513750 0.236191
vt 0.595110 0.228914
vt 0.776609 0.300469
vt 0.691102 0.353535
vt 0.718993 0.425035
vt 0.966673 0.297243
vt 0.933804 0.353571
vt 0.975379 0.354286
vt 0.864327 0.323692
vt 0.927885 0.416397
vt 0.257109 0.336414
vt 0.180007 0.319065
vt 0.226576 0.393621
vt 0.520811 0.325251
vt 0.545454 0.472382
vt 0.555547 0.421115
vt 0.504098 0.400749
vt 0.362726 0.470683
vt 0.398143 0.398308
vt 0.318182 0.393652
vt 0.356776 0.317551
vt 0.392579 0.350927
vt 0.263273 0.336712
vt 0.182781 0.470714
vt 0.147504 0.412948
vt 0.863636 0.393652
vt 0.537626 0.272906
vt 0.463019 0.212687
vt 0.126085 0.344323
vt 0.881309 0.262011
vt 0.920395 0.177041
vt 0.820794 0.258704
vt 0.707520 0.242340
vt 0.769445 0.207983
vt 0.462286 0.147132
vt 0.224430 0.278913
vt 0.086672 0.293227
vt 0.052968 0.166466
vt 0.112325 0.130424
vt 0.846074 0.197106
vt 0.822878 0.137430
vt 0.659903 0.194041
vt 0.637790 0.117353
vt 0.485220 0.068692
vt 0.417154 0.121486
vt 0.431208 0.040422
vt 0.340909 0.114815
vt 0.271829 0.042783
vt 0.210656 0.105113
vt 0.024621 0.118096
vt 0.083607 0.012647
vt 0.598859 0.064945
vt 0.647919 0.031111
vt 0.694242 0.098153
vt 0.808011 0.036443
vt 0.768955 0.104052
vt 0.454545 0.000000
vt 0.840908 0.357567
vt 0.727272 0.472382
vt 0.749999 0.433017
vt 0.666205 0.289683
vt 0.105518 0.044921
vt 0.477272 0.357567
vn 0.7910 0.0968 0.6041
vn -0.9807 -0.1902 -0.0452
vn -0.6412 0.5792 -0.5034
vn -0.2467 0.9690 0.0149
vn 0.1171 0.3203 -0.9400
vn 0.2430 -0.4565 0.8559
vn -0.5755 -0.4863 0.6575
vn -0.3131 -0.8183 0.4820
vn -0.3618 -0.1734 0.9160
vn -0.0512 0.2944 0.9543
vn 0.7774 0.4474 0.4421
vn -0.3410 0.2598 0.9034
vn 0.5334 0.0174 0.8457
vn 0.2091 0.3860 0.8985
vn -0.8459 0.2746 0.4572
vn -0.7061 -0.1893 0.6824
vn -0.7284 -0.4208 0.5407
vn -0.0988 -0.3563 0.9291
vn -0.6111 0.5573 0.5621
vn -0.3433 0.6364 0.6908
vn 0.0907 -0.3916 0.9157
vn 0.7842 0.5112 0.3517
vn 0.6437 0.6078 -0.4650
vn 0.4138 0.8936 0.1741
vn 0.2475 0.8941 0.3732
vn -0.8790 0.1701 0.4455
vn -0.4923 -0.8674 -0.0727
vn 0.0275 -0.9822 0.1861
vn 0.6508 -0.7430 0.1562
vn 0.3857 0.9033 0.1880
vn 0.3855 0.7844 -0.4860
vn 0.2072 0.9734 -0.0977
vn -0.3162 0.2088 0.9254
vn -0.8412 0.0691 -0.5364
vn -0.8812 -0.4723 -0.0198
vn -0.7195 -0.4802 -0.5017
vn 0.5136 -0.8493 0.1218
vn 0.1909 -0.9249 0.3288
vn -0.0036 -0.9967 -0.0809
vn 0.2800 -0.8482 -0.4496
vn 0.8908 0.4324 -0.1395
vn 0.3095 0.8722 -0.3789
vn 0.9184 0.3710 -0.1372
vn 0.5326 0.6271 -0.5684
vn 0.1387 0.4906 -0.8603
vn 0.4096 0.7936 -0.4499
vn -0.1541 0.5102 -0.8462
vn -0.3575 0.3939 -0.8468
vn -0.5147 0.0872 -0.8529
vn -0.8559 0.0802 -0.5108
vn -0.2000 -0.5409 -0.8169
vn 0.6074 0.7715 -0.1894
vn 0.4657 -0.0672 -0.8824
vn 0.1281 -0.5027 -0.8549
vn 0.7250 -0.1668 -0.6682
vn 0.2854 0.3021 -0.9096
vn -0.1557 -0.8157 -0.5572
vn -0.4741 0.8056 -0.3554
vn -0.4558 0.8830 -0.1116
vn 0.9229 -0.0786 -0.3770
vn 0.5950 -0.1639 -0.7869
vn 0.7284 -0.5003 -0.4681
vn 0.7690 -0.5043 -0.3930
vn -0.2824 -0.9279 -0.2433
vn 0.2907 0.6035 0.7424
vn 0.1956 -0.4614 0.8654
vn -0.4748 0.4502 0.7563
vn 0.7241 -0.4676 0.5070
vn -0.3398 0.2955 0.8929
vn 0.8767 0.4619 -0.1342
vn 0.5541 -0.2296 -0.8002
vn -0.0814 0.9113 0.4037
vn -0.1820 0.9239 0.3367
vn -0.5697 0.3138 0.7596
vn -0.4180 0.3387 0.8429
vn -0.9688 0.0233 0.2469
vn -0.7907 0.0037 0.6122
vn -0.8869 -0.2704 0.3746
vn -0.3211 -0.8827 0.3431
vn -0.7929 0.5648 0.2287
vn 0.9923 0.1190 0.0342
vn -0.8085 0.4176 -0.4147
vn -0.7901 -0.6054 -0.0957
vn 0.2419 -0.9501 -0.1967
vn 0.4630 -0.6953 -0.5498
vn -0.2956 -0.3372 -0.8938
vn 0.6976 0.5946 -0.3997
vn -0.1375 0.7413 -0.6569
vn 0.3773 0.2683 -0.8864
vn 0.8238 0.0429 0.5653
vn 0.2278 0.7324 0.6416
vn 0.1918 -0.4705 0.8613
vn 0.6792 -0.5211 0.5169
vn -0.8538 0.4978 0.1524
vn 0.9950 -0.0987 0.0122
vn -0.2441 -0.4951 -0.8338
usemtl None
s off
f 30/1/1 13/2/1 32/3/1
f 26/4/2 12/5/2 38/6/2
f 43/7/3 48/8/3 22/9/3
f 9/10/4 27/11/4 25/12/4
f 16/13/5 35/14/5 8/15/5
f 14/16/6 30/17/6 10/18/6
f 15/19/7 34/20/7 19/21/7
f 34/20/8 15/19/8 2/22/8
f 19/21/9 34/20/9 29/23/9
f 17/24/10 33/25/10 11/26/10
f 50/27/11 32/3/11 13/2/11
f 3/28/12 10/29/12 31/30/12
f 30/1/13 32/3/13 10/29/13
f 10/29/14 32/3/14 31/30/14
f 3/31/15 31/32/15 11/33/15
f 28/34/16 31/32/16 18/35/16
f 11/33/17 31/32/17 28/34/17
f 11/33/18 28/34/18 17/36/18
f 3/37/19 11/26/19 29/38/19
f 11/26/20 33/25/20 29/38/20
f 10/39/21 29/23/21 34/20/21
f 13/2/22 36/40/22 50/27/22
f 35/14/23 36/40/23 8/15/23
f 50/27/24 36/40/24 42/41/24
f 50/27/25 9/10/25 18/35/25
f 33/25/26 38/6/26 19/42/26
f 39/43/27 15/19/27 1/44/27
f 2/22/28 39/43/28 23/45/28
f 40/46/29 14/16/29 24/47/29
f 50/27/30 42/41/30 9/10/30
f 46/48/31 27/11/31 42/41/31
f 42/41/32 27/11/32 9/10/32
f 17/36/33 25/12/33 37/49/33
f 12/5/34 26/4/34 22/9/34
f 38/6/35 12/5/35 15/50/35
f 1/51/36 12/5/36 21/52/36
f 14/16/37 23/45/37 24/47/37
f 2/22/38 23/45/38 14/16/38
f 44/53/39 23/45/39 39/43/39
f 24/47/40 44/53/40 6/54/40
f 8/15/41 13/2/41 45/55/41
f 16/13/42 8/15/42 7/56/42
f 20/57/43 46/48/43 16/13/43
f 20/57/44 47/58/44 46/48/44
f 49/59/45 47/58/45 20/57/45
f 46/48/46 47/58/46 27/11/46
f 48/8/47 47/60/47 49/61/47
f 49/61/48 22/9/48 48/8/48
f 22/9/49 49/61/49 21/62/49
f 12/5/50 22/9/50 21/62/50
f 6/63/51 1/51/51 4/64/51
f 7/56/52 20/65/52 16/13/52
f 4/66/53 7/56/53 5/67/53
f 6/54/54 4/68/54 5/69/54
f 7/56/55 45/55/55 5/67/55
f 4/70/56 49/59/56 20/57/56
f 1/44/57 6/54/57 44/53/57
f 27/11/58 48/8/58 43/7/58
f 25/12/59 27/11/59 43/7/59
f 16/13/60 46/48/60 42/41/60
f 35/14/61 16/13/61 42/41/61
f 5/69/62 45/55/62 24/47/62
f 40/46/63 24/47/63 45/55/63
f 1/44/64 44/53/64 39/43/64
f 50/27/65 31/30/65 32/3/65
f 14/71/66 34/20/66 2/22/66
f 29/38/67 33/25/67 19/42/67
f 40/46/68 30/17/68 14/16/68
f 3/72/69 29/73/69 10/18/69
f 8/15/70 36/40/70 13/2/70
f 35/14/71 42/41/71 36/40/71
f 28/34/72 18/35/72 9/10/72
f 28/34/73 9/10/73 25/12/73
f 17/36/74 28/34/74 25/12/74
f 33/25/75 17/36/75 37/49/75
f 26/4/76 38/6/76 37/49/76
f 33/25/77 37/49/77 38/6/77
f 15/50/78 19/42/78 38/6/78
f 2/22/79 15/19/79 39/43/79
f 43/7/80 37/49/80 25/12/80
f 41/74/81 45/55/81 13/2/81
f 22/9/82 26/4/82 43/7/82
f 15/50/83 12/5/83 1/51/83
f 23/45/84 44/53/84 24/47/84
f 6/54/85 5/69/85 24/47/85
f 4/64/86 21/52/86 49/75/86
f 7/56/87 8/15/87 45/55/87
f 27/11/88 47/60/88 48/8/88
f 7/56/89 4/66/89 20/65/89
f 30/1/90 41/74/90 13/2/90
f 50/27/91 18/76/91 31/30/91
f 14/71/92 10/39/92 34/20/92
f 40/46/93 41/74/93 30/17/93
f 43/7/94 26/4/94 37/49/94
f 41/74/95 40/46/95 45/55/95
f 4/64/96 1/51/96 21/52/96
