# Blender v2.91.0 OBJ File: 'RaytracingJs.blend'
# www.blender.org
mtllib 4.mtl
o Icosphere.004_Icosphere.005
v 0.458160 -4.962274 -2.111944
v -0.178786 -4.890922 -3.686429
v 0.613039 -4.439474 -1.745533
v -0.520235 -4.002422 -1.684901
v -0.136730 -3.431751 -2.405190
v -0.376639 -4.764440 -2.034203
v -0.428037 -2.533381 -2.282189
v -0.476157 -5.124983 -0.172227
v 0.516209 -5.345278 -1.333015
v -0.105940 -5.299454 0.032358
v 0.489294 -3.197399 -0.135162
v 0.445873 -3.234784 -0.963710
v 0.056528 -2.801320 -1.121326
v 1.621234 -5.424502 -1.305847
v 0.949707 -5.844014 -0.736530
v 0.921966 -3.712289 0.035354
v 0.785982 -3.931488 -0.574796
v -0.364448 -4.659774 0.903175
v -0.769456 -4.862232 0.150044
v 0.522850 -3.419548 0.288127
v -0.153149 -3.612707 0.394088
v 0.285848 -3.714731 0.645073
v 1.478376 -4.846481 -0.356353
v 0.190327 -4.221264 0.876878
v 0.660159 -5.471697 0.355719
v -0.093406 -3.884604 0.905271
v -0.570495 -3.870964 0.677548
v -0.451419 -4.345474 0.958944
v -0.993011 -4.188456 0.233320
v -0.013198 -5.025147 0.782531
v 0.116589 -5.841088 0.141314
v 0.390058 -6.687638 0.005808
v 0.875335 -6.933245 -0.426974
v 1.784973 -6.239307 -1.147663
v 2.139677 -5.483062 -1.330101
v 1.893028 -4.757436 -0.982238
v -0.284134 -2.962310 -0.407743
v -0.540268 -3.081452 -0.452041
v -0.888360 -3.626690 0.273419
v -1.189502 -4.051045 -0.080155
v 0.038855 -2.459772 -2.319125
v 0.211986 -3.209765 -2.285723
v -0.743821 -3.186456 -0.947168
v -0.814167 -4.844951 -0.144281
v -0.104160 -5.100084 -2.020708
v 1.637685 -4.894512 -1.114036
v -0.256991 -2.185913 -2.487938
v -0.756215 -3.764272 -1.147663
v 0.082771 -4.066898 -3.012038
v -0.145957 -5.133903 -2.982080
vt 0.708279 0.141401
vt 0.678530 0.075599
vt 0.636363 0.157461
vt 0.104912 0.077766
vt 0.098410 0.015545
vt 0.045454 0.078731
vt 0.283329 0.099502
vt 0.267366 0.015930
vt 0.227273 0.078731
vt 0.925801 0.205534
vt 0.786146 0.196428
vt 0.878668 0.261498
vt 0.479012 0.232513
vt 0.497603 0.154236
vt 0.443185 0.168447
vt 0.687474 0.230810
vt 0.772321 0.236191
vt 0.553914 0.278345
vt 0.591139 0.177085
vt 0.948715 0.383108
vt 0.963473 0.258563
vt 0.491466 0.281753
vt 0.362811 0.319092
vt 0.418066 0.379401
vt 0.593328 0.340016
vt 0.531902 0.436315
vt 0.573605 0.423623
vt 0.360494 0.408307
vt 0.380239 0.443624
vt 0.313886 0.386831
vt 0.172623 0.397948
vt 0.204545 0.433017
vt 0.227597 0.360021
vt 0.182413 0.277225
vt 0.896931 0.415320
vt 0.931818 0.433017
vt 0.843505 0.303870
vt 0.840908 0.357567
vt 0.755020 0.424320
vt 0.713727 0.398046
vt 0.727272 0.472382
vt 0.773131 0.335087
vt 0.728265 0.313751
vt 0.686199 0.287837
vt 0.659090 0.357567
vt 0.657282 0.282790
vt 0.624540 0.270772
vt 0.499604 0.366558
vt 0.386902 0.214823
vt 0.330062 0.208931
vt 0.267762 0.286861
vt 0.196968 0.224941
vt 0.077433 0.263629
vt 0.454545 0.000000
vt 0.451238 0.088086
vt 0.484573 0.052011
vt 0.266009 0.174835
vt 0.088293 0.216833
vt 0.024407 0.195937
vt 0.824617 0.143177
vt 0.640480 0.229061
vt 0.540447 0.127604
vt 0.318541 0.079345
vt 0.213891 0.135397
vt 0.023091 0.117153
vt 0.636363 0.069951
vt 0.606404 0.052130
vt 0.799586 0.115718
vt 0.777511 0.078136
vt 0.863636 0.078731
vt 0.819337 0.002002
vt 0.133718 0.389069
vt 0.181818 0.472382
vt 0.909090 0.472382
vt 0.408751 0.079358
vt 0.184084 0.132975
vt 0.636363 0.000000
vn 0.9268 -0.0114 -0.3754
vn -0.8938 0.0365 -0.4470
vn -0.8010 -0.1816 -0.5704
vn -0.3611 -0.9229 -0.1336
vn 0.7545 0.6526 -0.0690
vn -0.0536 -0.8977 -0.4374
vn -0.0407 -0.7809 -0.6234
vn 0.9122 0.2764 -0.3026
vn 0.7749 0.6283 -0.0690
vn -0.4364 -0.7820 0.4449
vn -0.1406 0.8068 0.5739
vn 0.6776 -0.0512 0.7337
vn 0.4434 0.3025 0.8437
vn -0.0674 0.8776 0.4747
vn -0.2038 0.8543 0.4782
vn -0.3861 0.3969 0.8327
vn -0.7718 0.1697 0.6128
vn 0.2164 -0.1122 0.9698
vn -0.3928 -0.6060 0.6917
vn -0.9122 -0.3329 0.2390
vn 0.4203 -0.2100 0.8828
vn 0.5237 -0.3410 0.7807
vn 0.7107 -0.2479 0.6583
vn 0.7465 -0.1968 0.6356
vn 0.8324 0.0174 0.5539
vn 0.6800 0.6700 0.2977
vn 0.6587 0.3036 0.6884
vn -0.1178 0.7617 0.6371
vn -0.4180 0.6709 0.6125
vn -0.1081 0.8189 0.5636
vn -0.8190 0.1124 0.5626
vn -0.8577 -0.3330 0.3917
vn -0.7180 -0.1445 -0.6809
vn 0.3076 0.0286 -0.9511
vn 0.1082 0.8838 0.4552
vn 0.1801 0.9376 0.2975
vn -0.7253 0.6706 0.1560
vn -0.8459 0.5258 0.0895
vn -0.8950 -0.4321 0.1106
vn -0.6346 -0.7711 0.0511
vn -0.6654 -0.4001 -0.6302
vn -0.5758 -0.7828 -0.2361
vn 0.1443 -0.8837 -0.4453
vn -0.0031 0.6961 -0.7179
vn 0.5657 0.7227 -0.3971
vn 0.5666 0.7228 -0.3957
vn 0.5709 0.7229 -0.3891
vn 0.9192 0.3618 -0.1558
vn 0.9624 0.2148 -0.1662
vn -0.4445 0.8411 0.3081
vn -0.9781 0.0866 -0.1890
vn -0.7564 -0.6222 -0.2016
vn 0.9269 0.1514 -0.3435
vn 0.6158 -0.7355 -0.2824
vn -0.9817 0.1410 -0.1283
vn -0.6617 -0.1131 -0.7411
vn 0.6781 0.1962 0.7083
vn 0.5976 0.3339 -0.7290
vn 0.6168 0.2509 -0.7461
vn -0.2961 -0.9524 -0.0724
vn -0.7991 -0.3123 0.5137
vn -0.1100 0.8100 0.5761
vn 0.1230 0.0200 0.9922
vn -0.5233 -0.2625 -0.8107
vn 0.1545 -0.1537 0.9760
vn -0.9253 -0.3793 0.0040
vn 0.3402 -0.3291 0.8809
vn 0.7283 -0.2102 0.6522
vn 0.8034 0.2004 0.5607
vn -0.7541 0.0941 0.6500
vn -0.5107 -0.8327 0.2141
vn -0.6918 -0.1092 -0.7138
vn 0.2950 0.3171 -0.9013
vn -0.0687 -0.2034 -0.9767
vn -0.9301 0.1381 -0.3404
vn -0.8959 0.4442 0.0054
vn 0.5722 0.7229 -0.3872
vn 0.6959 0.6932 0.1874
vn 0.2851 0.8968 0.3384
vn 0.5960 0.7745 0.2121
vn -0.9600 -0.1612 -0.2291
vn -0.9260 -0.0909 -0.3665
vn -0.8283 -0.3567 -0.4320
vn -0.1592 0.6527 -0.7407
vn -0.1551 0.6539 -0.7405
vn -0.1613 0.6521 -0.7408
vn -0.6386 -0.7570 -0.1387
vn 0.9504 0.2085 -0.2309
vn 0.9242 0.0188 -0.3814
vn -0.9270 -0.3658 -0.0830
vn 0.2416 -0.9701 0.0236
vn 0.4880 -0.0109 -0.8728
vn 0.7151 0.1126 0.6899
vn -0.7900 -0.3263 0.5191
vn -0.5081 -0.2032 -0.8370
vn 0.0069 0.4342 -0.9008
vn -0.7524 0.6351 0.1747
vn -0.9130 0.0148 -0.4076
vn -0.1530 0.6545 -0.7404
vn -0.7763 -0.6279 0.0558
usemtl Material.004
s 1
f 1/1/1 2/2/1 3/3/1
f 4/4/2 5/5/2 6/6/2
f 7/7/3 5/8/3 4/9/3
f 8/10/4 9/11/4 10/12/4
f 11/13/5 12/14/5 13/15/5
f 14/16/6 9/11/6 1/1/6
f 15/17/7 9/11/7 14/16/7
f 12/14/8 16/18/8 17/19/8
f 11/13/9 16/18/9 12/14/9
f 18/20/10 19/21/10 10/12/10
f 20/22/11 21/23/11 22/24/11
f 23/25/12 24/26/12 25/27/12
f 22/24/13 26/28/13 24/29/13
f 21/23/14 26/28/14 22/24/14
f 27/30/15 26/28/15 21/23/15
f 28/31/16 26/32/16 27/33/16
f 28/31/17 27/33/17 29/34/17
f 18/20/18 30/35/18 28/36/18
f 18/20/19 31/37/19 30/35/19
f 30/35/20 31/37/20 32/38/20
f 30/39/21 25/40/21 24/41/21
f 25/40/22 32/42/22 33/43/22
f 33/43/23 34/44/23 25/40/23
f 23/45/24 34/44/24 35/46/24
f 36/47/25 23/25/25 35/46/25
f 20/22/26 16/18/26 11/13/26
f 20/22/27 22/48/27 16/18/27
f 21/23/28 20/22/28 37/49/28
f 38/50/29 21/23/29 37/49/29
f 39/51/30 21/23/30 38/50/30
f 29/34/31 39/51/31 40/52/31
f 19/53/32 29/34/32 40/52/32
f 33/43/33 31/37/33 15/17/33
f 5/54/34 41/55/34 42/56/34
f 20/22/35 11/13/35 37/49/35
f 37/49/36 11/13/36 13/15/36
f 38/50/37 43/57/37 39/51/37
f 39/51/38 43/57/38 40/52/38
f 44/58/39 19/53/39 40/52/39
f 44/58/40 8/59/40 19/53/40
f 15/17/41 31/37/41 10/12/41
f 15/17/42 10/12/42 9/11/42
f 1/1/43 9/11/43 45/60/43
f 36/47/44 46/61/44 16/18/44
f 3/3/45 17/19/46 46/61/47
f 42/56/48 12/14/48 17/62/48
f 42/56/49 41/55/49 12/14/49
f 37/49/50 47/63/50 38/50/50
f 43/57/51 7/7/51 48/64/51
f 45/65/52 44/58/52 6/6/52
f 3/3/53 49/66/53 42/67/53
f 1/1/54 50/68/54 2/69/54
f 6/70/55 5/71/55 2/69/55
f 47/63/56 5/8/56 7/7/56
f 24/26/57 16/18/57 22/48/57
f 3/3/58 46/61/58 1/1/58
f 14/16/59 1/1/59 46/61/59
f 8/10/60 45/60/60 9/11/60
f 28/31/61 19/53/61 18/72/61
f 39/51/62 27/30/62 21/23/62
f 24/73/63 26/32/63 28/31/63
f 34/44/64 15/17/64 14/16/64
f 24/74/65 28/36/65 30/35/65
f 10/12/66 31/37/66 18/20/66
f 30/39/67 32/42/67 25/40/67
f 25/40/68 34/44/68 23/45/68
f 23/25/69 36/47/69 16/18/69
f 27/33/70 39/51/70 29/34/70
f 10/12/71 19/21/71 8/10/71
f 31/37/72 33/43/72 32/42/72
f 36/47/73 14/16/73 46/61/73
f 14/16/74 35/46/74 34/44/74
f 48/64/75 40/52/75 43/57/75
f 43/57/76 47/63/76 7/7/76
f 16/18/77 46/61/47 17/19/46
f 13/15/78 12/14/78 41/55/78
f 37/49/79 13/15/79 47/75/79
f 41/55/80 47/75/80 13/15/80
f 48/76/81 6/6/81 44/58/81
f 4/9/82 48/64/82 7/7/82
f 44/58/83 40/52/83 48/76/83
f 49/66/84 5/77/85 42/67/86
f 8/59/87 44/58/87 45/65/87
f 3/3/88 42/67/88 17/19/88
f 3/3/89 2/2/89 49/66/89
f 50/68/90 6/70/90 2/69/90
f 1/1/91 45/60/91 50/68/91
f 5/54/92 47/75/92 41/55/92
f 24/26/93 23/25/93 16/18/93
f 28/31/94 29/34/94 19/53/94
f 34/44/95 33/43/95 15/17/95
f 36/47/96 35/46/96 14/16/96
f 43/57/97 38/50/97 47/63/97
f 48/76/98 4/4/98 6/6/98
f 49/66/84 2/2/99 5/77/85
f 50/68/100 45/60/100 6/70/100
