# Blender v2.92.0 OBJ File: ''
# www.blender.org
mtllib 4.mtl
o Icosphere.002_Icosphere.003
v -3.165993 0.614320 -1.161959
v -3.318805 1.530739 -2.295958
v -3.792655 1.613312 -1.342483
v -3.236366 0.910958 -0.766603
v -4.088720 2.917069 -1.276118
v -4.416661 1.539326 -0.405596
v -4.552515 -0.327254 0.810558
v -4.612879 0.373434 0.621261
v -3.925234 0.619467 0.711050
v -4.054069 -0.874430 -0.720371
v -3.062189 -0.149395 -0.238359
v -3.132901 1.513626 -1.868581
v -3.885573 0.819003 -1.459771
v -4.810722 -0.039842 -0.686917
v -3.324455 1.653054 -1.474304
v -4.801303 -0.540490 0.281670
v -4.546630 0.905685 -0.397842
v -4.303986 2.679202 -0.691289
v -3.675611 -0.718528 0.603559
v -4.007382 1.588136 0.190649
v -3.320326 1.164104 -2.133190
v -3.279178 -0.479779 -0.246681
v -4.669728 0.816680 -0.019209
v -5.059518 0.364150 -0.260623
v -3.142406 -0.344905 0.264516
v -4.005488 2.408940 -0.522569
v -4.191333 -0.350199 0.987653
v -4.396340 -0.024404 0.972546
v -4.056615 0.335470 0.902307
v -3.580777 0.794513 0.422786
v -4.462730 -0.572506 0.568885
v -3.832568 -0.109995 0.975485
v -3.547449 1.250272 -0.015414
v -4.249940 0.815842 0.233969
v -5.161846 0.042549 -0.006981
v -4.445866 -0.980745 -0.079063
v -3.864583 -0.918000 0.253581
v -4.322600 2.634783 -1.049885
v -3.969091 2.375022 -1.385206
v -5.052460 0.504275 0.117625
v -4.885648 -0.571682 -0.196739
v -3.900881 -0.998435 -0.422715
v -3.991043 1.134999 -1.099354
v -4.616251 0.594359 -0.593107
v -4.412038 -0.601011 -0.872366
v -3.223652 0.996745 -1.917428
v -3.656091 0.058567 -1.409662
v -3.551050 -0.512047 -0.871589
v -4.450315 -0.925544 -0.391348
v -3.189395 -0.124208 0.403340
vt 0.442267 0.021267
vt 0.497000 0.081465
vt 0.477272 0.039365
vt 0.146054 0.114079
vt 0.099355 0.210153
vt 0.180908 0.236236
vt 0.313924 0.245234
vt 0.336224 0.178425
vt 0.285651 0.154095
vt 0.454545 0.157461
vt 0.478652 0.195577
vt 0.527713 0.140899
vt 0.924389 0.223552
vt 0.843544 0.185315
vt 0.841887 0.287008
vt 0.231140 0.195128
vt 0.246448 0.253515
vt 0.384810 0.234873
vt 0.501199 0.234088
vt 0.609535 0.209164
vt 0.978634 0.289089
vt 0.945829 0.330609
vt 0.959310 0.384649
vt 0.369096 0.316670
vt 0.408902 0.393329
vt 0.467601 0.275246
vt 0.480935 0.347594
vt 0.570306 0.355708
vt 0.568831 0.297464
vt 0.500000 0.393652
vt 0.363636 0.472382
vt 0.370418 0.413511
vt 0.340909 0.433017
vt 0.159091 0.433017
vt 0.184275 0.407548
vt 0.136500 0.374960
vt 0.181818 0.472382
vt 0.896618 0.450780
vt 0.915253 0.409060
vt 0.859528 0.382480
vt 0.668419 0.322299
vt 0.504438 0.292084
vt 0.092041 0.283386
vt 0.728985 0.202732
vt 0.775164 0.342634
vt 0.694582 0.285569
vt 0.678687 0.223525
vt 0.454545 0.235374
vt 0.407985 0.131600
vt 0.168883 0.119131
vt 0.031114 0.209094
vt 0.636363 0.157461
vt 0.572212 0.119245
vt 0.342285 0.113872
vt 0.281825 0.036611
vt 0.053606 0.111165
vt 0.704545 0.114815
vt 0.629029 0.106750
vt 0.590909 0.078731
vt 0.629569 0.060330
vt 0.659090 0.039365
vt 0.636363 0.000000
vt 0.880989 0.108788
vt 0.809972 0.065199
vt 0.859916 0.135716
vt 0.782190 0.130905
vt 0.772727 0.078731
vt 0.551676 0.442600
vt 0.068182 0.039365
vt 0.100762 0.017065
vt 0.909090 0.157461
vt 0.442347 0.349968
vt 0.628385 0.329599
vt 0.265350 0.357624
vt 0.725723 0.426013
vt 0.523063 0.114585
vt 0.030341 0.170413
vt 0.522727 0.433017
vn -0.6452 -0.3078 -0.6993
vn -0.8700 -0.2622 -0.4175
vn -0.9147 0.3408 -0.2173
vn -0.2603 -0.1141 -0.9588
vn 0.0408 -0.9924 0.1158
vn -0.8897 -0.0724 -0.4507
vn -0.9657 0.2488 -0.0741
vn -0.9458 0.1908 -0.2627
vn 0.8223 0.4408 0.3598
vn -0.5034 -0.6929 0.5162
vn -0.7338 0.2850 0.6167
vn 0.6349 0.5108 0.5796
vn 0.4231 0.4564 0.7827
vn 0.0210 0.1724 0.9848
vn -0.4953 0.6311 0.5969
vn -0.4398 -0.2366 0.8664
vn 0.0020 0.0476 0.9989
vn 0.3186 -0.4331 0.8431
vn -0.3418 -0.7201 0.6038
vn 0.8361 0.3472 0.4247
vn 0.4304 0.7697 0.4715
vn 0.1646 0.6467 0.7447
vn -0.8267 -0.2657 0.4960
vn -0.2066 -0.8302 0.5177
vn -0.1751 -0.8117 0.5572
vn 0.6432 -0.7608 0.0863
vn 0.5952 -0.8019 0.0523
vn 0.8341 -0.5459 -0.0792
vn -0.7836 0.6202 -0.0362
vn -0.9934 0.1078 0.0382
vn -0.7608 -0.2792 -0.5858
vn -0.5643 -0.1760 -0.8066
vn -0.6678 0.3052 -0.6789
vn -0.8741 -0.4497 0.1834
vn -0.6951 -0.6990 0.1681
vn 0.6297 -0.7746 0.0583
vn 0.9827 0.1809 0.0392
vn 0.9897 0.0642 0.1280
vn 0.8772 0.3818 0.2912
vn -0.8812 0.1964 -0.4301
vn -0.8823 0.1370 -0.4503
vn -0.7560 0.3663 -0.5424
vn -0.7640 0.4567 -0.4558
vn -0.7640 0.3174 -0.5618
vn -0.7674 -0.3728 -0.5217
vn 0.8152 -0.4389 -0.3780
vn 0.9756 -0.1568 -0.1538
vn 0.9084 -0.1217 -0.4000
vn 0.7982 -0.2472 -0.5494
vn 0.4768 -0.5781 -0.6621
vn -0.6750 -0.2494 -0.6944
vn -0.0862 -0.5679 -0.8185
vn 0.4325 -0.5752 -0.6944
vn 0.4893 0.3515 0.7981
vn 0.9935 0.1118 -0.0193
vn -0.4507 -0.1934 -0.8715
vn -0.5622 -0.1295 -0.8168
vn -0.1425 -0.9376 -0.3173
vn 0.1122 0.2198 -0.9691
vn -0.1391 -0.9755 -0.1705
vn -0.8012 0.2290 0.5528
vn 0.6451 0.2596 0.7187
vn -0.2582 0.7475 0.6120
vn 0.6339 0.5064 0.5845
vn -0.3640 0.4973 0.7875
vn 0.6353 -0.2768 0.7210
vn -0.7975 0.0924 0.5962
vn -0.1758 -0.8177 0.5481
vn 0.8858 0.4242 0.1882
vn -0.7533 0.0010 0.6577
vn -0.8695 0.1992 0.4520
vn -0.4345 0.5383 0.7222
vn -0.6192 0.7111 -0.3332
vn -0.4645 -0.7547 0.4634
vn 0.9777 0.0884 0.1903
vn -0.6909 -0.0070 -0.7229
vn -0.7985 0.1567 -0.5812
vn -0.8723 -0.0951 -0.4797
vn -0.4050 0.7346 0.5443
vn 0.3896 0.9113 -0.1330
vn -0.6759 -0.5849 -0.4484
vn -0.6583 -0.7428 -0.1219
vn 0.6610 -0.7071 -0.2511
vn 0.9526 0.2458 0.1792
vn 0.9192 0.3124 0.2395
vn 0.2433 -0.6414 -0.7276
vn -0.3521 -0.7626 -0.5426
vn 0.7957 -0.5145 -0.3196
vn 0.4360 0.3551 0.8269
vn -0.3340 0.7609 0.5563
vn 0.6524 -0.2991 0.6964
vn 0.8872 0.4271 0.1745
vn -0.7750 0.1017 0.6237
vn -0.6643 0.7049 -0.2487
vn -0.1247 0.9813 -0.1469
vn 0.3918 -0.7601 -0.5183
usemtl None
s off
f 13/1/1 2/2/1 21/3/1
f 14/4/2 41/5/2 35/6/2
f 23/7/3 17/8/3 44/9/3
f 3/10/4 39/11/4 15/12/4
f 36/13/5 42/14/5 37/15/5
f 14/4/6 35/6/6 24/16/6
f 24/16/7 35/6/7 40/17/7
f 6/18/8 17/8/8 23/7/8
f 15/12/9 5/19/9 4/20/9
f 16/21/10 31/22/10 7/23/10
f 34/24/11 9/25/11 18/26/11
f 20/27/12 30/28/12 33/29/12
f 9/30/13 30/28/13 20/27/13
f 32/31/14 29/32/14 28/33/14
f 29/32/15 9/25/15 34/24/15
f 27/34/16 28/35/16 7/36/16
f 32/37/17 28/35/17 27/34/17
f 32/38/18 27/39/18 19/40/18
f 31/22/19 27/39/19 7/23/19
f 33/29/20 30/28/20 50/41/20
f 18/26/21 26/42/21 5/19/21
f 20/27/22 26/42/22 18/26/22
f 35/6/23 16/43/23 7/36/23
f 36/13/24 37/15/24 31/22/24
f 31/22/25 37/15/25 19/40/25
f 22/44/26 19/45/26 37/15/26
f 22/44/27 25/46/27 19/45/27
f 25/46/28 22/44/28 11/47/28
f 38/48/29 18/26/29 5/19/29
f 6/18/30 18/26/30 38/48/30
f 6/18/31 38/48/31 39/11/31
f 43/49/32 39/11/32 3/10/32
f 14/50/33 24/16/33 44/9/33
f 41/5/34 16/43/34 35/6/34
f 16/43/35 41/5/35 36/51/35
f 22/44/36 37/15/36 42/14/36
f 1/52/37 4/20/37 11/47/37
f 1/52/38 12/53/38 4/20/38
f 4/20/39 12/53/39 15/12/39
f 43/49/40 2/2/40 13/1/40
f 3/10/41 2/2/41 43/49/41
f 44/9/42 43/54/42 13/55/42
f 17/8/43 43/54/43 44/9/43
f 44/9/44 13/55/44 14/50/44
f 14/4/45 45/56/45 41/5/45
f 11/47/46 48/57/46 46/58/46
f 46/58/47 12/53/47 1/52/47
f 12/53/48 46/58/48 2/59/48
f 46/58/49 21/60/49 2/59/49
f 47/61/50 21/60/50 46/58/50
f 13/62/51 21/60/51 47/61/51
f 45/63/52 47/64/52 10/65/52
f 48/66/53 47/64/53 46/67/53
f 9/30/54 32/68/54 30/28/54
f 1/52/55 11/47/55 46/58/55
f 47/69/56 45/56/56 13/70/56
f 14/4/57 13/70/57 45/56/57
f 49/71/58 10/65/58 42/14/58
f 15/12/59 39/11/59 5/19/59
f 49/71/60 42/14/60 36/13/60
f 18/26/61 9/25/61 20/72/61
f 50/73/62 30/28/62 32/68/62
f 34/24/63 8/74/63 29/32/63
f 33/29/64 26/42/64 20/27/64
f 8/74/65 28/33/65 29/32/65
f 19/45/66 50/41/66 32/75/66
f 7/36/67 28/35/67 8/74/67
f 19/40/68 27/39/68 31/22/68
f 26/42/69 4/20/69 5/19/69
f 35/6/70 8/74/70 40/17/70
f 6/18/71 34/24/71 18/26/71
f 23/7/72 34/24/72 6/18/72
f 24/16/73 23/7/73 44/9/73
f 36/13/74 31/22/74 16/21/74
f 11/47/75 50/41/75 25/46/75
f 5/19/76 39/11/76 38/48/76
f 17/8/77 6/18/77 43/49/77
f 6/18/78 39/11/78 43/49/78
f 8/74/79 23/7/79 40/17/79
f 2/2/80 15/12/80 12/76/80
f 41/5/81 45/56/81 49/77/81
f 36/51/82 41/5/82 49/77/82
f 42/14/83 48/66/83 22/44/83
f 11/47/84 4/20/84 50/41/84
f 33/29/85 50/41/85 4/20/85
f 48/66/86 10/65/86 47/64/86
f 49/71/87 45/63/87 10/65/87
f 11/47/88 22/44/88 48/57/88
f 9/30/89 29/78/89 32/68/89
f 34/24/90 23/7/90 8/74/90
f 19/45/91 25/46/91 50/41/91
f 26/42/92 33/29/92 4/20/92
f 35/6/93 7/36/93 8/74/93
f 24/16/94 40/17/94 23/7/94
f 2/2/95 3/10/95 15/12/95
f 48/66/96 42/14/96 10/65/96
